<svg width="338.23994140625px" height="149.625048828125px" xmlns="http://www.w3.org/2000/svg" viewBox="80.880029296875 0.18747558593750568 338.23994140625 149.625048828125" style="background: none; --darkreader-inline-bgimage:none; --darkreader-inline-bgcolor: initial;" data-darkreader-inline-bgimage="" data-darkreader-inline-bgcolor="" preserveAspectRatio="xMidYMid"><defs><filter id="editing-hover" x="-100%" y="-100%" width="300%" height="300%"><feFlood flood-color="#2e2f31" result="flood"></feFlood><feComposite operator="in" in2="SourceAlpha" in="flood" result="shadow"></feComposite><feOffset dx="-2.6" dy="0.8" in="SourceGraphic" result="offset-1"></feOffset><feOffset dx="2.6" dy="-0.8" in="shadow" result="offset-2"></feOffset><feMerge><feMergeNode in="offset-2"></feMergeNode><feMergeNode in="offset-1"></feMergeNode></feMerge></filter></defs><g filter="url(#editing-hover)"><g transform="translate(132.40000009536743, 101.43500137329102)"><path d="M4.03 0L4.03-51.84L8.96-51.84L23.68-17.41L23.68-51.84L29.70-51.84L29.70 0L25.09 0L10.18-35.39L10.18 0L4.03 0ZM37.82 0L37.82-51.84L57.92-51.84L57.92-46.46L45.06-46.46L45.06-29.31L55.49-29.31L55.49-24.19L45.06-24.19L45.06-5.18L58.05-5.18L58.05 0L37.82 0ZM70.59 0L62.14-51.84L68.16-51.84L73.73-14.59L80.70-51.65L85.82-51.65L92.86-14.40L98.30-51.84L104.19-51.84L95.87 0L90.62 0L83.39-38.40L76.10 0L70.59 0ZM122.75 0.58L122.75 0.58Q116.22 0.58 112.80-3.46L112.80-3.46L112.80-3.46Q109.38-7.49 108.99-14.53L108.99-14.53L115.39-16.26L115.39-16.26Q115.71-11.26 117.34-8.19L117.34-8.19L117.34-8.19Q118.98-5.12 122.75-5.12L122.75-5.12L122.75-5.12Q125.57-5.12 127.01-6.69L127.01-6.69L127.01-6.69Q128.45-8.26 128.45-11.20L128.45-11.20L128.45-11.20Q128.45-14.40 127.10-16.51L127.10-16.51L127.10-16.51Q125.76-18.62 122.82-21.18L122.82-21.18L114.11-28.86L114.11-28.86Q111.49-31.17 110.30-33.82L110.30-33.82L110.30-33.82Q109.12-36.48 109.12-40.32L109.12-40.32L109.12-40.32Q109.12-46.02 112.38-49.15L112.38-49.15L112.38-49.15Q115.65-52.29 121.28-52.29L121.28-52.29L121.28-52.29Q127.42-52.29 130.56-49.02L130.56-49.02L130.56-49.02Q133.70-45.76 134.34-38.91L134.34-38.91L128.19-37.25L128.19-37.25Q127.87-41.79 126.43-44.26L126.43-44.26L126.43-44.26Q124.99-46.72 121.28-46.72L121.28-46.72L121.28-46.72Q118.53-46.72 117.06-45.28L117.06-45.28L117.06-45.28Q115.58-43.84 115.58-41.02L115.58-41.02L115.58-41.02Q115.58-38.72 116.35-37.15L116.35-37.15L116.35-37.15Q117.12-35.58 118.98-33.98L118.98-33.98L127.74-26.30L127.74-26.30Q131.14-23.30 133.15-19.78L133.15-19.78L133.15-19.78Q135.17-16.26 135.17-11.78L135.17-11.78L135.17-11.78Q135.17-6.08 131.71-2.75L131.71-2.75L131.71-2.75Q128.26 0.58 122.75 0.58L122.75 0.58ZM155.84 0L155.84-51.84L162.94-51.84L162.94 0L155.84 0ZM171.33 0L171.33-51.84L176.26-51.84L190.98-17.41L190.98-51.84L196.99-51.84L196.99 0L192.38 0L177.47-35.39L177.47 0L171.33 0ZM218.11 0.58L218.11 0.58Q210.43 0.58 207.30-4L207.30-4L207.30-4Q204.16-8.58 204.16-16.64L204.16-16.64L204.16-34.94L204.16-34.94Q204.16-43.46 207.23-47.87L207.23-47.87L207.23-47.87Q210.30-52.29 218.11-52.29L218.11-52.29L218.11-52.29Q225.09-52.29 228.13-48.51L228.13-48.51L228.13-48.51Q231.17-44.74 231.17-37.38L231.17-37.38L231.17-33.28L224.32-33.28L224.32-36.93L224.32-36.93Q224.32-40.51 224-42.43L224-42.43L224-42.43Q223.68-44.35 222.37-45.50L222.37-45.50L222.37-45.50Q221.06-46.66 218.18-46.66L218.18-46.66L218.18-46.66Q215.23-46.66 213.79-45.41L213.79-45.41L213.79-45.41Q212.35-44.16 211.90-41.95L211.90-41.95L211.90-41.95Q211.46-39.74 211.46-36.03L211.46-36.03L211.46-15.49L211.46-15.49Q211.46-11.52 212.10-9.28L212.10-9.28L212.10-9.28Q212.74-7.04 214.18-6.08L214.18-6.08L214.18-6.08Q215.62-5.12 218.18-5.12L218.18-5.12L218.18-5.12Q220.93-5.12 222.27-6.34L222.27-6.34L222.27-6.34Q223.62-7.55 223.97-9.66L223.97-9.66L223.97-9.66Q224.32-11.78 224.32-15.42L224.32-15.42L224.32-19.26L231.17-19.26L231.17-15.42L231.17-15.42Q231.17-7.68 228.26-3.55L228.26-3.55L228.26-3.55Q225.34 0.58 218.11 0.58L218.11 0.58Z" fill="#ffffff"></path></g></g><style>text {
  font-size: 64px;
  font-family: Arial Black;
  dominant-baseline: central;
  text-anchor: middle;
}</style></svg>